<?xml version="1.0" standalone="no"?>
<!DOCTYPE svg PUBLIC "-//W3C//DTD SVG 20010904//EN"
 "http://www.w3.org/TR/2001/REC-SVG-20010904/DTD/svg10.dtd">
<svg version="1.0" xmlns="http://www.w3.org/2000/svg"
 width="360.000000pt" height="480.000000pt" viewBox="0 0 360.000000 480.000000"
 preserveAspectRatio="xMidYMid meet">

<g transform="translate(0.000000,480.000000) scale(0.100000,-0.100000)"
fill="#000000" stroke="none">
<path d="M0 2400 l0 -2400 1800 0 1800 0 0 2400 0 2400 -1800 0 -1800 0 0
-2400z m3420 520 l0 -360 -1580 0 -1580 0 0 360 0 360 1580 0 1580 0 0 -360z
m-2560 -572 c0 -19 -2 -20 -10 -8 -7 11 -10 5 -10 -22 0 -21 -5 -38 -11 -38
-7 0 -10 13 -7 35 3 27 1 32 -9 23 -10 -8 -13 -7 -13 4 0 21 10 28 37 28 17 0
23 -6 23 -22z m36 7 c-3 -9 0 -15 9 -15 9 0 12 6 9 15 -4 9 -1 15 7 15 10 0
14 -14 14 -45 0 -26 -4 -43 -10 -41 -5 1 -9 10 -7 20 2 9 -4 16 -13 16 -12 0
-15 -6 -10 -21 5 -15 3 -20 -5 -17 -18 6 -19 88 -1 88 8 0 11 -6 7 -15z m114
0 c0 -9 -6 -12 -15 -9 -8 4 -15 1 -15 -5 0 -6 6 -11 13 -12 10 0 10 -2 0 -6
-7 -2 -13 -9 -13 -15 0 -6 7 -7 16 -4 10 4 14 1 12 -6 -5 -14 -48 -18 -48 -5
0 4 0 23 0 42 0 31 3 35 25 35 15 0 25 -6 25 -15z m98 -4 c3 -10 -2 -11 -19
-6 -21 7 -22 6 -10 -9 10 -11 10 -16 2 -16 -8 0 -10 -8 -6 -20 4 -14 2 -18 -7
-15 -8 3 -13 22 -14 46 0 37 2 40 25 37 13 -2 26 -9 29 -17z m103 0 c1 -13 2
-13 6 2 2 9 11 17 19 17 19 0 18 -14 -2 -31 -10 -8 -13 -21 -9 -37 4 -16 2
-23 -6 -20 -7 2 -13 16 -13 31 -2 27 -26 64 -26 38 0 -8 -7 -10 -20 -6 -12 4
-20 2 -20 -5 0 -6 5 -8 10 -5 6 3 10 1 10 -4 0 -6 -4 -11 -10 -11 -5 0 -10 -5
-10 -11 0 -6 9 -8 21 -4 15 5 20 3 17 -6 -3 -8 -17 -14 -31 -15 -25 -1 -27 2
-27 42 l0 43 45 -1 c34 0 45 -5 46 -17z m69 11 c0 -5 7 -17 16 -28 15 -18 15
-18 9 9 -4 18 -1 27 8 27 9 0 11 -12 9 -40 -4 -43 -15 -51 -31 -22 -10 16 -10
16 -11 0 0 -9 -4 -20 -10 -23 -6 -4 -10 12 -10 39 0 25 5 46 10 46 6 0 10 -4
10 -8z m95 -23 c9 -17 14 -36 12 -42 -3 -7 -10 -1 -16 13 -10 23 -11 23 -8 3
1 -12 -2 -23 -7 -25 -4 -2 -9 16 -10 40 -3 50 7 54 29 11z m45 -4 c0 -19 0
-38 1 -42 0 -4 -4 -9 -9 -11 -12 -4 -24 52 -16 73 11 27 24 16 24 -20z m66 18
c1 -10 4 -30 9 -45 5 -19 3 -28 -4 -28 -6 0 -11 7 -11 15 0 20 -10 19 -27 -2
-13 -16 -14 -15 -7 12 4 17 6 38 6 48 0 10 6 17 16 17 10 0 18 -8 18 -17z m62
-5 l11 -23 0 23 c2 40 21 23 21 -18 0 -45 -10 -50 -34 -17 l-17 22 5 -22 c2
-14 -1 -23 -7 -23 -7 0 -12 17 -12 40 -1 44 16 53 33 18z m95 -13 c-5 -34 9
-50 20 -22 3 6 6 2 6 -10 1 -17 -5 -23 -21 -23 -20 0 -23 5 -23 45 0 28 4 45
12 45 8 0 10 -11 6 -35z m104 18 c3 -7 -3 -9 -16 -6 -13 3 -21 1 -21 -6 0 -7
4 -10 9 -6 5 3 12 1 16 -5 3 -5 -1 -10 -9 -10 -9 0 -16 -5 -16 -11 0 -7 9 -9
21 -6 13 3 19 1 16 -6 -2 -7 -14 -12 -26 -12 -20 0 -23 6 -25 43 -2 40 -1 43
23 40 13 -2 26 -8 28 -15z m83 0 c0 -9 -8 -11 -25 -7 -22 5 -25 3 -25 -20 0
-28 18 -34 38 -14 8 8 12 8 12 1 0 -17 -26 -34 -43 -27 -41 15 -25 85 18 82
14 -1 25 -8 25 -15z m74 1 c5 -12 2 -15 -10 -10 -12 5 -15 0 -12 -24 1 -16 -2
-30 -7 -30 -5 0 -8 15 -7 33 2 24 0 28 -7 17 -9 -12 -11 -11 -11 8 0 17 6 22
24 22 13 0 27 -7 30 -16z m36 -19 c0 -19 5 -35 10 -35 6 0 10 16 10 35 0 19 5
35 10 35 6 0 10 -15 10 -34 0 -39 -24 -66 -42 -48 -14 14 -21 82 -8 82 6 0 10
-16 10 -35z m109 21 c8 -10 9 -16 1 -21 -7 -4 -7 -12 0 -26 13 -24 2 -25 -17
-1 -12 15 -13 15 -11 0 2 -9 -1 -18 -6 -20 -4 -2 -9 16 -10 40 -2 34 1 42 15
42 9 0 22 -6 28 -14z m78 -3 c3 -7 -3 -9 -16 -6 -12 3 -21 1 -21 -6 0 -6 8
-12 18 -12 16 -1 16 -2 0 -6 -10 -2 -18 -9 -18 -15 0 -6 9 -8 21 -5 13 3 19 1
16 -6 -2 -7 -14 -12 -26 -12 -20 0 -23 6 -25 43 -2 40 -1 43 23 40 13 -2 26
-8 28 -15z m63 2 c0 -9 -6 -12 -17 -9 -16 5 -16 4 0 -9 10 -9 17 -24 15 -34
-4 -20 -29 -25 -36 -5 -2 7 2 10 12 6 23 -9 20 9 -5 24 -16 11 -18 16 -9 28
16 18 40 18 40 -1z m94 9 c20 -8 21 -57 2 -73 -31 -26 -67 20 -46 59 11 21 19
24 44 14z m71 -21 l16 -28 -6 28 c-4 21 -2 27 11 27 11 0 14 -5 10 -16 -3 -9
-6 -27 -6 -40 0 -30 -13 -31 -28 -1 l-12 22 3 -24 c1 -13 -3 -26 -9 -28 -7 -2
-11 13 -11 42 0 52 10 57 32 18z m123 3 c2 -10 -3 -23 -12 -28 -9 -5 -16 -16
-16 -24 0 -8 -4 -12 -10 -9 -5 3 -10 24 -10 46 0 36 2 40 22 37 13 -2 24 -11
26 -22z m45 2 l4 -23 8 23 c12 37 25 25 25 -23 0 -25 -4 -45 -10 -45 -5 0 -10
9 -10 20 0 11 -4 20 -10 20 -5 0 -10 -9 -10 -20 0 -11 -4 -20 -10 -20 -5 0
-10 20 -10 45 0 47 15 62 23 23z m78 5 c1 -17 2 -17 6 0 2 9 9 17 15 17 6 0 7
-7 2 -17 -4 -10 -8 -28 -8 -40 -1 -13 -7 -25 -14 -28 -9 -3 -11 1 -8 13 4 10
-1 27 -9 38 -19 25 -19 34 0 34 8 0 16 -8 16 -17z m89 2 c0 -9 -6 -12 -17 -9
-17 5 -17 5 0 -9 30 -25 18 -64 -17 -51 -25 10 -19 26 7 18 l22 -6 -21 23
c-12 13 -19 30 -17 37 7 17 43 15 43 -3z m40 -24 c0 -22 -4 -43 -10 -46 -6 -4
-10 12 -10 39 0 25 5 46 10 46 6 0 10 -18 10 -39z m87 22 c3 -8 -6 -11 -23
-10 -20 1 -29 -3 -32 -16 -4 -19 29 -38 36 -19 4 14 22 16 22 2 0 -18 -40 -32
-56 -19 -17 14 -18 51 -2 67 15 15 50 12 55 -5z m63 2 c0 -9 -6 -12 -17 -9
-17 5 -17 5 0 -9 30 -25 18 -64 -17 -51 -25 10 -19 26 7 18 l22 -6 -21 23
c-12 13 -19 30 -17 37 7 17 43 15 43 -3z m-1534 -175 c2 -55 27 -54 27 0 0 22
5 30 19 30 19 0 23 -10 9 -25 -5 -6 -14 -27 -21 -47 -16 -53 -26 -54 -43 -6
-8 24 -18 51 -22 61 -5 12 -2 17 11 17 14 0 19 -8 20 -30z m190 4 c23 -34 9
-75 -28 -88 -35 -12 -68 15 -68 55 0 58 65 81 96 33z m86 -24 c-3 -41 -1 -50
12 -50 9 0 16 8 16 20 0 11 5 20 11 20 6 0 9 -12 7 -27 -3 -24 -8 -28 -38 -31
l-35 -3 0 61 c0 47 3 60 15 60 12 0 14 -11 12 -50z m114 3 c-1 -36 3 -48 14
-48 11 0 15 12 14 48 0 38 3 47 17 47 14 0 16 -7 12 -42 -7 -56 -19 -78 -42
-78 -27 0 -38 19 -43 73 -5 39 -3 47 11 47 14 0 17 -9 17 -47z m159 7 l12 -35
13 38 c8 21 21 37 30 37 12 0 15 -13 15 -60 0 -48 -3 -60 -15 -58 -10 2 -14
14 -13 38 l2 35 -13 -28 c-16 -36 -28 -35 -44 6 l-12 32 4 -43 c3 -34 1 -43
-11 -40 -11 2 -15 18 -16 61 -2 52 0 57 17 55 12 -2 24 -17 31 -38z m205 18
c0 -17 -3 -19 -12 -10 -17 17 -48 15 -48 -3 0 -9 9 -15 23 -16 l22 0 -22 -9
c-13 -5 -23 -16 -23 -25 0 -18 36 -20 43 -2 2 6 8 9 12 5 18 -17 -5 -38 -42
-38 l-38 0 0 60 0 60 43 0 c37 0 42 -3 42 -22z m115 -38 c0 -47 -3 -60 -15
-60 -12 0 -15 13 -15 60 0 47 3 60 15 60 12 0 15 -13 15 -60z m77 48 c-15 -15
-16 -70 0 -86 9 -9 7 -13 -6 -18 -10 -4 -22 -2 -29 5 -8 8 -8 11 1 11 7 0 12
15 12 38 0 21 -5 43 -12 50 -9 9 -6 12 17 12 23 0 26 -3 17 -12z m80 0 c-7 -7
-12 -29 -12 -50 0 -23 5 -38 12 -38 9 0 9 -3 1 -11 -15 -15 -47 -3 -36 13 10
18 10 70 -1 86 -6 9 -1 12 20 12 22 0 25 -3 16 -12z m871 -1536 c96 -53 149
-167 126 -272 -32 -148 -179 -237 -323 -196 -150 44 -228 212 -162 351 66 140
225 192 359 117z m-2743 -227 c0 -8 -6 -12 -15 -9 -11 5 -14 -2 -11 -30 2 -27
-1 -36 -13 -36 -12 0 -16 11 -16 45 0 42 2 45 28 45 17 0 27 -5 27 -15z m100
-1 c0 -11 -6 -14 -20 -9 -11 4 -20 2 -20 -4 0 -6 6 -11 13 -12 10 0 10 -2 0
-6 -21 -8 -14 -25 7 -18 14 5 20 2 20 -9 0 -11 -10 -16 -32 -16 -32 0 -33 1
-33 45 0 44 1 45 33 45 22 0 32 -5 32 -16z m61 -1 c1 -17 2 -17 6 0 2 9 11 17
19 17 19 0 18 -14 -2 -31 -10 -8 -13 -21 -9 -36 4 -18 1 -23 -15 -23 -16 0
-19 5 -15 23 4 15 1 28 -9 36 -22 18 -20 31 4 31 12 0 20 -7 21 -17z m103 -5
l17 -23 -6 23 c-5 16 -2 22 9 22 12 0 16 -11 16 -45 0 -50 -11 -57 -34 -23
l-16 22 0 -22 c0 -12 -6 -22 -12 -22 -9 0 -13 16 -13 45 0 50 13 58 39 23z
m107 0 l12 -22 8 22 c5 12 15 22 24 22 11 0 15 -11 15 -45 0 -34 -4 -45 -15
-45 -11 0 -14 7 -10 28 l5 27 -12 -27 c-7 -16 -15 -28 -18 -28 -3 0 -11 12
-18 28 l-12 27 5 -27 c4 -19 1 -28 -7 -28 -9 0 -13 15 -13 45 0 49 16 60 36
23z m154 -3 c1 -11 5 -30 9 -42 6 -17 3 -23 -8 -23 -9 0 -16 7 -16 15 0 8 -4
15 -10 15 -5 0 -10 -7 -10 -15 0 -8 -7 -15 -16 -15 -12 0 -14 5 -9 18 5 9 9
28 11 42 1 14 3 26 3 28 1 2 11 2 23 0 13 -2 22 -11 23 -23z m80 5 c3 -11 10
-20 15 -20 4 0 6 9 3 20 -4 14 0 20 12 20 12 0 15 -5 11 -16 -3 -9 -6 -29 -6
-45 0 -37 -15 -37 -35 -1 l-16 27 6 -27 c4 -20 1 -28 -8 -28 -9 0 -14 15 -15
45 -2 33 2 45 12 45 8 0 18 -9 21 -20z m218 -15 c-4 -23 -2 -35 6 -35 6 0 11
5 11 10 0 6 5 10 10 10 6 0 10 -9 10 -20 0 -16 -7 -20 -32 -20 -32 0 -33 1
-31 42 1 24 2 44 2 46 1 1 7 2 15 2 11 0 13 -9 9 -35z m127 20 c0 -9 -6 -12
-15 -9 -8 4 -15 1 -15 -5 0 -6 6 -11 13 -12 10 0 10 -2 0 -6 -7 -2 -13 -9 -13
-15 0 -6 7 -8 15 -4 9 3 15 0 15 -9 0 -10 -10 -15 -30 -15 -29 0 -30 2 -30 45
0 43 1 45 30 45 20 0 30 -5 30 -15z m65 -30 c0 -33 -4 -45 -15 -45 -11 0 -15
12 -15 45 0 33 4 45 15 45 11 0 15 -12 15 -45z m93 39 c31 -9 28 -23 -5 -21
-22 2 -28 -2 -28 -18 0 -11 8 -21 17 -23 13 -2 16 1 12 12 -5 12 -2 15 10 10
20 -8 17 -23 -7 -38 -36 -23 -75 36 -47 70 14 16 16 16 48 8z m89 -9 c-4 -8
-2 -17 3 -20 6 -4 10 3 10 14 0 12 6 21 13 21 8 0 12 -16 12 -45 0 -45 0 -45
-35 -45 -35 0 -35 0 -35 45 0 37 3 45 19 45 12 0 16 -5 13 -15z m140 0 c8 -22
-6 -33 -18 -15 -8 11 -9 5 -5 -22 4 -32 2 -38 -14 -38 -16 0 -18 6 -14 38 4
28 3 33 -5 22 -9 -12 -11 -11 -11 8 0 18 5 22 30 22 18 0 33 -6 37 -15z m97
-1 c32 -31 6 -81 -36 -71 -31 8 -41 38 -21 66 17 25 36 27 57 5z m90 -6 l17
-23 -6 23 c-5 15 -2 22 8 22 12 0 14 -9 10 -42 -6 -45 -13 -60 -20 -42 -2 6
-11 20 -19 30 -15 18 -15 18 -9 -8 4 -19 1 -28 -7 -28 -9 0 -13 15 -14 45 0
50 14 58 40 23z m236 7 c0 -9 -6 -12 -17 -8 -14 4 -12 0 5 -16 28 -28 24 -45
-11 -49 -19 -2 -27 1 -27 12 0 10 6 13 18 9 15 -6 15 -4 -2 15 -10 12 -16 28
-13 37 8 19 47 20 47 0z m100 -11 c0 -14 5 -34 10 -45 9 -16 7 -19 -11 -19
-15 0 -19 5 -15 15 3 9 0 15 -9 15 -9 0 -12 -6 -9 -15 4 -10 0 -15 -14 -15
-20 0 -20 2 -8 33 7 17 11 38 9 45 -3 7 5 12 21 12 21 0 26 -5 26 -26z m84 4
l17 -23 -6 23 c-5 16 -2 22 10 22 13 0 16 -9 13 -42 -3 -47 -20 -59 -36 -26
l-11 23 0 -22 c-1 -13 -7 -23 -13 -23 -9 0 -13 16 -13 45 0 50 13 58 39 23z
m127 12 c21 -12 25 -50 7 -68 -7 -7 -23 -12 -37 -12 -24 0 -26 3 -26 45 0 48
14 57 56 35z m107 -9 c3 -10 -2 -11 -19 -6 l-24 6 24 -19 c15 -12 22 -25 18
-36 -8 -21 -57 -22 -57 0 0 11 6 14 23 9 22 -6 22 -6 -2 13 -16 13 -22 25 -18
36 8 20 48 18 55 -3z m-1440 -28 c-2 -10 -10 -18 -18 -18 -8 0 -16 8 -18 18
-2 12 3 17 18 17 15 0 20 -5 18 -17z m912 3 c0 -8 -5 -18 -11 -22 -14 -8 -33
11 -25 25 10 16 36 13 36 -3z"/>
<path d="M1066 3173 c-4 -5 -26 -8 -49 -8 -29 0 -42 -5 -45 -15 -2 -12 9 -15
55 -15 53 0 58 2 61 23 3 22 -8 29 -22 15z"/>
<path d="M2482 3155 c-16 -34 -15 -35 6 -35 10 0 31 14 47 30 l29 30 -36 0
c-28 0 -37 -5 -46 -25z"/>
<path d="M759 3091 c-23 -19 -24 -24 -24 -161 l0 -142 30 -26 c17 -14 29 -31
27 -38 -1 -6 5 -15 15 -18 15 -6 15 -8 3 -16 -8 -5 -23 -7 -32 -4 -10 3 -18 0
-18 -6 0 -7 17 -10 48 -8 40 3 47 6 50 25 3 17 -3 24 -24 29 l-26 7 32 14 c45
18 59 40 60 91 0 38 -2 42 -25 42 -22 0 -25 -4 -25 -34 0 -37 -21 -62 -45 -52
-22 8 -22 261 0 270 20 7 45 -20 45 -50 0 -19 5 -24 25 -24 22 0 25 4 25 34 0
50 -33 86 -80 86 -22 0 -47 -8 -61 -19z"/>
<path d="M978 3099 c-25 -14 -38 -72 -38 -164 1 -147 21 -190 91 -190 70 0 79
21 79 186 0 126 -2 141 -20 159 -22 22 -82 27 -112 9z m70 -41 c14 -14 17
-235 3 -256 -5 -8 -17 -12 -27 -10 -17 3 -19 15 -22 127 -2 82 1 128 9 137 14
17 21 18 37 2z"/>
<path d="M1376 3088 c-24 -22 -30 -39 -27 -85 0 -12 26 -50 56 -85 30 -34 55
-72 55 -84 0 -47 -55 -54 -66 -9 -4 17 -11 21 -30 17 -30 -5 -31 -30 -4 -65
57 -73 175 -17 155 74 -4 17 -31 58 -61 91 -41 46 -54 68 -52 87 4 34 43 42
53 12 4 -14 15 -21 31 -21 32 0 32 33 -1 65 -31 32 -76 32 -109 3z"/>
<path d="M2609 3081 c-50 -51 -36 -102 50 -185 28 -27 51 -56 51 -66 0 -42
-62 -50 -75 -9 -6 18 -44 27 -58 13 -10 -10 14 -64 36 -79 40 -28 114 -15 144
24 17 22 16 66 -1 99 -8 15 -37 49 -65 77 -52 50 -61 71 -39 93 19 19 38 14
47 -11 8 -20 15 -23 40 -19 30 4 30 5 17 36 -25 61 -99 75 -147 27z"/>
<path d="M2974 3098 c-35 -16 -44 -52 -44 -173 0 -123 9 -157 47 -174 74 -34
143 9 143 89 0 27 -3 30 -30 30 -25 0 -30 -4 -30 -24 0 -36 -10 -56 -29 -56
-35 0 -41 21 -41 135 0 114 6 135 41 135 19 0 29 -19 29 -54 0 -18 5 -22 23
-20 12 1 25 3 30 3 4 1 7 17 7 36 0 68 -78 106 -146 73z"/>
<path d="M450 2925 l0 -175 70 0 c68 0 70 1 70 25 0 23 -4 25 -40 25 l-40 0 0
150 0 150 -30 0 -30 0 0 -175z"/>
<path d="M630 2925 l0 -175 25 0 25 0 0 175 0 175 -25 0 -25 0 0 -175z"/>
<path d="M1170 2925 l0 -175 70 0 c68 0 70 1 70 25 0 23 -4 25 -45 25 l-45 0
0 55 0 55 35 0 c31 0 35 3 35 25 0 22 -4 25 -36 25 l-35 0 3 48 3 47 43 3 c34
3 42 7 42 23 0 17 -7 19 -70 19 l-70 0 0 -175z"/>
<path d="M1660 2925 l0 -175 59 0 c43 0 65 5 82 19 23 18 24 27 27 148 3 119
2 130 -18 156 -19 24 -28 27 -86 27 l-64 0 0 -175z m105 -1 l0 -119 -25 0 -25
0 -3 114 c-3 135 -1 144 30 132 22 -8 23 -12 23 -127z"/>
<path d="M1880 2925 l0 -176 73 3 c66 3 72 5 75 26 3 20 -1 22 -42 22 l-46 0
0 55 c0 54 0 55 30 55 25 0 30 4 30 25 0 21 -5 25 -30 25 -29 0 -30 1 -30 50
l0 50 44 0 c39 0 45 3 43 20 -1 18 -8 20 -74 20 l-73 0 0 -175z"/>
<path d="M2280 2925 l0 -175 30 0 30 0 0 80 0 80 35 0 c31 0 35 3 35 25 0 22
-4 25 -35 25 -35 0 -35 0 -35 45 l0 45 50 0 c47 0 50 2 50 25 0 25 -1 25 -80
25 l-80 0 0 -175z"/>
<path d="M2470 2925 l0 -175 30 0 30 0 0 175 0 175 -30 0 -30 0 0 -175z"/>
<path d="M2810 2925 l0 -175 35 0 35 0 0 175 0 175 -35 0 -35 0 0 -175z"/>
<path d="M3210 3098 c0 -2 -14 -75 -30 -163 -16 -88 -30 -166 -30 -172 0 -8
13 -13 30 -13 23 0 30 5 30 19 0 36 12 51 40 51 28 0 40 -15 40 -51 0 -15 7
-19 33 -19 l33 0 -28 153 c-40 216 -32 197 -78 197 -22 0 -40 -1 -40 -2z m54
-140 c9 -82 8 -88 -15 -88 -20 0 -21 4 -15 46 3 26 6 57 6 70 0 45 17 24 24
-28z"/>
<path d="M2250 2325 c0 -20 4 -26 18 -23 9 2 17 12 17 23 0 11 -8 21 -17 23
-14 3 -18 -3 -18 -23z"/>
<path d="M2450 2340 c0 -5 5 -10 10 -10 6 0 10 5 10 10 0 6 -4 10 -10 10 -5 0
-10 -4 -10 -10z"/>
<path d="M1467 2183 c-21 -20 1 -73 30 -73 22 0 38 46 23 65 -13 15 -42 20
-53 8z"/>
<path d="M3030 644 c-177 -77 -175 -334 2 -408 96 -41 218 -1 273 89 25 41 30
58 30 115 0 57 -5 74 -30 115 -56 90 -180 130 -275 89z m81 -144 l2 -65 7 73
c10 94 20 103 22 21 0 -36 3 -49 5 -29 4 40 22 90 32 90 4 0 5 -15 3 -32 -4
-29 -3 -31 11 -20 13 11 16 6 19 -44 3 -61 -1 -71 -44 -97 -36 -22 -41 -21
-27 4 8 15 8 19 0 15 -6 -4 -11 -3 -11 2 0 5 -7 9 -15 9 -15 0 -19 -10 -16
-35 2 -9 -10 -7 -38 8 l-41 20 0 73 c1 65 2 70 15 53 14 -19 15 -18 15 14 0
47 21 25 31 -32 6 -42 7 -42 8 17 3 79 19 46 22 -45z m-2 -156 c4 3 8 -1 8 -8
0 -7 -6 -13 -14 -13 -7 0 -13 10 -12 21 0 12 3 15 6 8 2 -6 8 -10 12 -8z m-92
-9 c0 -6 -6 -12 -14 -12 -7 0 -13 6 -13 12 0 6 6 12 13 12 8 0 14 -6 14 -12z
m40 0 c0 -6 -6 -12 -14 -12 -7 0 -13 6 -13 12 0 6 6 12 13 12 8 0 14 -6 14
-12z m80 -7 c-3 -8 -6 -5 -6 6 -1 11 2 17 5 13 3 -3 4 -12 1 -19z m20 0 c-3
-8 -6 -5 -6 6 -1 11 2 17 5 13 3 -3 4 -12 1 -19z m60 0 c-3 -8 -6 -5 -6 6 -1
11 2 17 5 13 3 -3 4 -12 1 -19z m30 0 c-3 -8 -6 -5 -6 6 -1 11 2 17 5 13 3 -3
4 -12 1 -19z m20 0 c-3 -8 -6 -5 -6 6 -1 11 2 17 5 13 3 -3 4 -12 1 -19z"/>
<path d="M3172 480 c-18 -29 -15 -38 4 -12 9 13 14 25 12 27 -2 2 -9 -5 -16
-15z"/>
<path d="M3092 460 c0 -14 2 -19 5 -12 2 6 2 18 0 25 -3 6 -5 1 -5 -13z"/>
<path d="M1690 391 c0 -6 5 -13 10 -16 6 -3 10 1 10 9 0 9 -4 16 -10 16 -5 0
-10 -4 -10 -9z"/>
<path d="M1890 405 c0 -16 6 -25 15 -25 9 0 15 9 15 25 0 16 -6 25 -15 25 -9
0 -15 -9 -15 -25z"/>
<path d="M2540 405 c0 -17 5 -25 13 -22 6 2 12 12 12 22 0 10 -6 20 -12 23 -8
2 -13 -6 -13 -23z"/>
</g>
</svg>
