<?xml version="1.0" standalone="no"?>
<!DOCTYPE svg PUBLIC "-//W3C//DTD SVG 20010904//EN"
 "http://www.w3.org/TR/2001/REC-SVG-20010904/DTD/svg10.dtd">
<svg version="1.0" xmlns="http://www.w3.org/2000/svg"
 width="338.000000pt" height="450.000000pt" viewBox="0 0 338.000000 450.000000"
 preserveAspectRatio="xMidYMid meet">

<g transform="translate(0.000000,450.000000) scale(0.100000,-0.100000)"
fill="#000000" stroke="none">
<path d="M10 2429 c0 -1891 1 -2070 16 -2058 9 7 37 21 62 30 26 10 68 26 94
36 26 9 51 14 55 9 4 -4 7 -33 6 -64 -2 -42 -7 -60 -20 -67 -52 -30 -138 -156
-129 -190 3 -11 19 -29 36 -40 33 -21 64 -68 53 -79 -4 -3 46 -6 109 -6 l116
0 -34 34 c-19 19 -34 38 -34 44 0 12 47 4 86 -15 50 -25 66 -13 62 49 -3 46
-6 53 -35 69 -30 17 -32 17 -27 1 5 -13 4 -14 -4 -4 -5 8 -9 23 -8 35 1 19 7
22 41 22 22 -1 40 -5 40 -10 1 -14 24 -52 25 -40 0 6 -6 17 -12 24 -11 11 -10
13 4 8 12 -4 15 -2 12 7 -3 8 -1 17 5 21 6 3 11 1 11 -6 0 -8 4 -8 15 1 20 17
19 1 -1 -21 -17 -19 -19 -41 -8 -102 5 -30 2 -41 -12 -53 -11 -9 -13 -13 -7
-9 15 7 18 -11 3 -20 -5 -3 -10 -13 -10 -21 0 -12 33 -14 204 -14 133 0 206 4
208 10 2 6 21 13 43 16 39 5 65 19 65 35 0 13 -38 11 -42 -3 -7 -21 -28 3 -28
32 0 29 -16 48 -28 35 -4 -4 -1 -10 6 -12 6 -3 10 -9 7 -13 -3 -5 -12 -7 -20
-3 -10 3 -15 -1 -15 -12 0 -9 -6 -23 -14 -30 -12 -12 -15 -9 -19 23 -3 24 1
43 11 55 8 9 13 19 10 22 -8 8 -39 -6 -33 -15 3 -4 -2 -13 -10 -20 -12 -10
-15 -9 -15 7 0 10 -4 23 -8 28 -14 16 -35 96 -38 143 -3 47 20 70 38 39 5 -10
16 -17 23 -17 8 0 15 -8 15 -17 0 -14 2 -15 13 -4 10 10 6 17 -18 38 -27 22
-28 25 -7 20 12 -3 22 -1 22 4 0 5 -13 9 -30 9 -29 0 -40 13 -20 25 12 7 14
36 3 33 -5 -1 -18 3 -30 10 -15 8 -30 9 -46 3 -21 -8 -26 -6 -30 9 -6 23 21
62 29 43 6 -15 34 -18 34 -4 0 4 11 6 25 3 36 -6 44 22 15 54 -13 13 -30 24
-37 24 -8 0 -11 5 -8 10 11 18 45 10 68 -16 44 -52 47 -54 110 -55 34 0 103
-7 152 -14 l90 -13 -72 1 c-39 1 -69 -1 -66 -5 2 -5 12 -8 22 -8 27 0 97 -57
115 -94 21 -44 20 -109 0 -153 -15 -29 -70 -97 -160 -195 l-25 -28 1175 0
1176 0 0 1006 0 1006 -36 -21 c-19 -11 -52 -23 -72 -27 -31 -4 -42 -1 -69 24
-18 17 -36 32 -40 34 -5 1 -19 19 -31 39 -23 38 -29 84 -12 94 6 3 10 13 10
22 0 9 16 37 36 63 48 63 94 73 161 35 25 -14 47 -25 49 -25 2 0 4 312 4 693
l-1 692 -35 22 c-28 18 -40 21 -57 12 -16 -7 -14 -4 5 11 l28 21 -21 22 c-27
28 -49 79 -49 112 0 34 38 117 50 110 5 -3 -4 26 -20 64 -34 83 -40 113 -22
118 7 3 12 -5 13 -19 0 -38 33 -113 49 -113 8 0 20 11 26 23 6 13 17 29 23 35
13 13 16 287 3 287 -9 0 -91 102 -106 133 -10 20 -20 22 -93 25 l-82 3 -26
-44 c-36 -62 -141 -158 -163 -149 -46 17 -122 124 -122 172 0 19 -6 20 -169
20 -138 0 -171 -3 -181 -15 -7 -8 -25 -15 -40 -15 -15 0 -33 7 -40 15 -11 13
-154 15 -1176 15 l-1164 0 0 -2071z m1150 1993 c0 -17 -52 -82 -65 -82 -19 0
-19 3 5 50 13 26 27 40 40 40 11 0 20 -3 20 -8z m2093 -113 c27 -12 57 -58 57
-88 0 -33 -22 -71 -42 -71 -19 0 -24 15 -8 25 17 10 12 45 -5 39 -8 -4 -15
-12 -15 -20 0 -18 -38 -26 -75 -16 -39 11 -43 55 -6 60 16 3 20 6 12 11 -16
10 -21 43 -8 59 12 15 58 16 90 1z m-2757 -15 c47 -22 74 -74 81 -154 6 -76
-7 -128 -44 -178 -23 -31 -24 -35 -10 -49 9 -9 39 -18 67 -21 39 -4 50 -8 46
-19 -3 -8 -6 -19 -6 -24 0 -26 -109 2 -153 40 -17 15 -37 26 -44 24 -24 -9
-92 18 -121 48 -52 53 -68 177 -33 254 29 64 73 95 133 95 27 0 65 -7 84 -16z
m232 -141 c2 -150 3 -152 29 -172 33 -27 73 -27 106 0 26 20 27 22 29 172 l3
152 25 0 25 0 0 -155 c0 -179 -7 -197 -81 -226 -39 -15 -50 -15 -96 -3 -84 23
-92 42 -96 215 -2 80 -1 152 2 160 4 9 15 14 28 12 23 -3 23 -6 26 -155z m392
-38 l0 -195 -25 0 -25 0 0 195 0 195 25 0 25 0 0 -195z m221 60 c23 -74 45
-135 48 -135 3 0 24 59 45 131 36 118 50 149 61 137 3 -2 14 -49 24 -104 11
-54 27 -130 36 -169 21 -100 20 -117 -7 -113 -20 3 -24 14 -42 116 -11 61 -22
112 -25 112 -4 0 -24 -52 -45 -115 -21 -63 -42 -115 -45 -115 -4 0 -25 51 -46
113 -20 61 -41 115 -44 120 -4 4 -15 -39 -25 -95 -23 -138 -23 -138 -52 -138
-19 0 -24 4 -20 18 3 9 19 94 37 187 17 94 33 173 36 178 12 21 25 -5 64 -128z
m369 -60 l0 -195 -25 0 -25 0 0 195 0 195 25 0 25 0 0 -195z m351 185 c15 -9
17 -15 9 -30 -9 -16 -14 -17 -40 -8 -88 30 -160 -37 -160 -148 0 -94 54 -160
123 -151 21 3 47 13 57 22 17 16 19 15 30 -6 11 -19 10 -25 -6 -36 -51 -37
-137 -36 -192 2 -27 20 -57 77 -66 128 -15 83 36 202 98 227 30 12 124 12 147
0z m272 -26 c5 -16 20 -56 32 -89 44 -115 95 -254 95 -260 0 -4 -12 -5 -27 -3
-20 2 -29 11 -38 38 l-12 35 -75 3 -75 3 -16 -41 c-12 -32 -20 -40 -41 -40
-14 0 -26 3 -26 6 0 6 26 72 108 272 26 61 51 111 56 109 5 -2 14 -16 19 -33z
m778 -47 c-13 -13 -15 11 -4 40 7 16 8 15 11 -6 2 -13 -1 -28 -7 -34z m-176
-11 c6 -7 25 -22 43 -35 32 -22 34 -22 72 -7 58 23 49 10 -12 -18 -46 -21 -49
-24 -25 -25 17 -1 27 -7 27 -16 0 -8 4 -15 8 -15 12 0 29 -41 37 -87 4 -21 14
-58 22 -82 11 -35 12 -50 2 -73 -6 -15 -17 -28 -24 -28 -8 0 -20 -6 -27 -12
-21 -20 -38 -15 -75 20 -40 37 -54 36 -29 -2 16 -25 16 -25 -6 -17 -71 28
-115 50 -127 65 -23 27 -47 19 -59 -21 -10 -31 -8 -40 8 -64 11 -15 20 -41 20
-58 0 -24 8 -36 38 -57 20 -14 28 -23 17 -19 -39 14 -92 17 -112 7 -15 -9 -27
-6 -56 11 -31 19 -34 24 -23 39 7 10 16 15 19 11 4 -3 13 -1 21 6 11 9 15 9
18 0 4 -11 38 -23 38 -13 0 3 -7 18 -15 34 -13 25 -19 29 -45 23 -25 -5 -30
-2 -30 14 0 13 15 27 45 43 38 19 48 31 65 77 25 68 25 89 -1 41 -22 -43 -24
-45 -26 -20 -1 9 -5 44 -8 78 -7 56 -5 62 21 94 l29 33 6 -24 7 -24 1 25 c1
25 43 80 61 80 5 0 11 9 15 19 6 20 41 19 60 -3z m-2147 -388 c17 -17 15 -33
-3 -18 -12 10 -18 10 -30 0 -8 -7 -15 -8 -15 -3 0 10 21 33 30 33 3 0 11 -5
18 -12z m-224 -34 c22 -8 10 -23 -13 -17 -22 6 -51 -30 -51 -63 0 -29 34 -57
59 -49 24 7 29 -10 5 -19 -24 -9 -63 4 -74 24 -18 33 -11 80 15 105 25 26 33
29 59 19z m540 0 c22 -9 20 -27 -2 -20 -28 9 -55 -17 -55 -52 0 -43 20 -65 55
-58 35 7 37 -10 2 -18 -58 -15 -100 53 -70 112 19 38 39 48 70 36z m480 0 c22
-8 11 -23 -13 -17 -25 6 -51 -22 -51 -57 0 -38 26 -63 56 -56 27 7 33 -8 8
-18 -24 -9 -63 4 -74 24 -20 36 -12 87 16 109 29 23 34 24 58 15z m590 -4 c28
-10 36 -46 15 -67 -8 -8 -6 -19 5 -42 22 -42 -2 -43 -26 -1 -22 38 -38 38 -38
0 0 -16 -4 -30 -10 -30 -11 0 -14 133 -3 143 9 10 27 9 57 -3z m-1843 -67 c16
-40 22 -70 16 -72 -5 -2 -14 4 -19 13 -12 21 -47 21 -64 -1 -25 -35 -24 -5 3
60 16 37 30 67 33 67 3 0 17 -30 31 -67z m329 -3 c0 -40 -4 -70 -10 -70 -6 0
-10 30 -10 70 0 40 4 70 10 70 6 0 10 -30 10 -70z m155 60 c-3 -5 -19 -10 -36
-10 -22 0 -29 -5 -29 -19 0 -14 5 -18 19 -14 10 3 22 0 25 -6 5 -7 -3 -11 -18
-11 -22 0 -26 -5 -26 -29 0 -27 4 -30 38 -34 34 -3 33 -4 -10 -5 l-48 -2 0 70
0 70 46 0 c27 0 43 -4 39 -10z m114 -58 l20 -27 1 48 c0 26 5 47 10 47 6 0 10
-30 10 -70 0 -38 -3 -70 -7 -70 -5 0 -21 21 -38 48 l-30 47 -3 -47 c-5 -76
-22 -56 -22 25 l1 72 19 -23 c11 -13 28 -36 39 -50z m281 -2 c0 -40 -4 -70
-10 -70 -6 0 -10 30 -10 70 0 40 4 70 10 70 6 0 10 -30 10 -70z m141 0 c19
-50 23 -70 14 -70 -7 0 -15 7 -19 15 -7 20 -46 19 -62 -2 -24 -34 -23 -6 2 60
14 37 29 67 32 67 4 0 19 -32 33 -70z m394 60 c-3 -5 -19 -10 -36 -10 -19 0
-29 -5 -29 -15 0 -8 9 -15 19 -15 11 0 23 -4 26 -10 4 -6 -5 -10 -19 -10 -22
0 -26 -5 -26 -28 0 -26 3 -28 29 -24 16 2 32 -1 35 -7 5 -7 -8 -11 -38 -11
l-46 0 0 70 0 70 46 0 c27 0 43 -4 39 -10z m100 -36 l35 -47 0 47 c0 25 5 46
10 46 6 0 11 -33 11 -77 1 -50 4 -67 8 -48 7 33 41 46 67 25 12 -11 14 -5 14
34 0 39 -3 46 -19 46 -11 0 -23 5 -26 10 -4 6 17 10 54 10 34 0 61 -4 61 -10
0 -5 -12 -10 -26 -10 -24 0 -25 -2 -23 -53 1 -29 -1 -59 -5 -65 -4 -7 -1 -12
8 -12 9 0 16 7 16 15 0 9 16 -2 40 -26 22 -23 38 -44 36 -47 -3 -2 1 -10 8
-18 7 -7 16 -31 20 -54 5 -31 14 -45 39 -60 36 -23 256 -95 331 -109 77 -14
82 -5 24 50 -46 44 -50 51 -44 81 7 40 60 88 97 88 58 0 139 -67 139 -115 0
-13 5 -27 10 -30 6 -4 8 -11 5 -16 -4 -5 4 -13 17 -18 32 -12 77 -59 85 -89 7
-30 -8 -58 -30 -54 -9 1 -21 -8 -28 -20 -6 -13 -27 -38 -46 -57 -19 -18 -32
-35 -29 -38 2 -3 -2 -23 -10 -45 -7 -22 -17 -75 -20 -118 l-7 -78 29 -16 c40
-21 65 -45 94 -86 13 -19 30 -39 37 -43 7 -4 13 -14 13 -21 0 -8 7 -19 15 -26
26 -22 20 -123 -12 -178 -34 -60 -108 -138 -153 -162 -113 -58 -224 -20 -277
95 -15 33 -26 63 -25 67 1 3 -5 12 -13 18 -12 10 -29 8 -86 -10 -84 -26 -134
-67 -124 -100 7 -22 -18 -60 -39 -60 -27 0 -87 -22 -102 -37 -15 -16 -15 -17
2 -24 11 -4 34 -5 52 -2 28 5 32 3 32 -17 0 -24 63 -191 86 -227 8 -12 34 -31
59 -42 72 -32 96 -109 49 -156 -12 -11 -20 -13 -27 -6 -6 6 -36 11 -66 11 -48
0 -53 -2 -41 -14 8 -8 31 -19 50 -24 l35 -10 -32 -1 c-21 -1 -39 7 -53 21 -20
22 -21 22 -53 5 -76 -41 -85 -55 -89 -139 -2 -43 0 -78 5 -78 4 0 6 -4 3 -9
-15 -23 17 -69 70 -100 101 -62 135 -122 123 -216 -14 -113 -14 -113 34 -126
104 -29 161 -28 192 4 7 7 4 8 -7 4 -29 -10 -21 1 14 19 26 14 39 14 87 4 75
-15 111 -19 111 -10 0 11 -33 38 -60 49 -24 10 -24 10 7 8 45 -4 70 -34 84
-104 10 -50 10 -63 -4 -88 l-16 -30 -1 45 c-1 25 -5 54 -9 64 -8 21 -56 35
-48 14 7 -20 -12 -48 -27 -42 -8 3 -21 -4 -29 -16 -12 -17 -15 -18 -20 -5 -6
15 -47 22 -47 7 0 -11 50 -62 61 -62 6 0 17 7 26 16 23 23 58 14 60 -16 3 -27
-20 -60 -55 -79 -16 -9 -22 -21 -23 -49 -1 -33 -2 -34 -9 -12 -5 15 -8 -25 -9
-105 0 -75 3 -124 8 -117 6 10 10 4 15 -21 7 -37 38 -73 55 -62 13 8 15 -54 2
-73 -6 -10 -10 -7 -15 13 -6 22 -9 25 -22 14 -13 -10 -12 -14 3 -31 17 -19 17
-21 -6 -39 -26 -22 -39 -23 -76 -9 -18 7 -33 7 -48 -1 -32 -17 -204 -157 -225
-183 -14 -19 -52 -32 -52 -19 0 6 42 41 167 138 l108 85 0 52 c0 48 3 54 28
66 42 21 49 52 45 211 -3 131 -5 145 -23 155 -34 19 -83 75 -87 98 -4 28 -35
44 -113 60 -54 10 -57 12 -30 18 l30 6 -27 7 c-28 7 -68 -9 -68 -27 0 -24 -65
-114 -101 -139 -22 -16 -37 -32 -34 -37 8 -12 -6 -41 -16 -34 -6 3 -7 15 -4
27 2 12 3 17 0 11 -4 -6 -27 -8 -68 -3 -68 7 -113 22 -139 46 -10 9 -22 12
-30 7 -7 -5 -20 -7 -29 -6 -15 3 -149 -141 -149 -160 0 -4 9 -8 19 -8 29 0 44
-58 36 -130 -8 -72 3 -94 110 -214 38 -43 89 -102 113 -130 24 -28 48 -50 55
-48 7 1 5 -3 -4 -10 -21 -17 -42 -58 -30 -58 5 0 17 8 27 17 9 10 23 18 31 19
8 2 18 6 21 10 4 4 -1 4 -10 1 -10 -4 -18 -2 -18 3 0 6 12 10 26 10 32 0 27
-20 -10 -38 -28 -14 -46 -47 -46 -83 0 -26 24 -19 28 8 2 11 16 32 31 47 24
23 35 27 77 24 46 -3 50 -6 67 -41 15 -30 17 -43 8 -68 -7 -21 -7 -37 1 -54
10 -22 8 -28 -18 -52 -25 -24 -37 -28 -86 -28 -64 0 -97 19 -136 76 -21 30
-23 42 -18 94 4 33 6 71 6 85 0 37 -61 119 -175 236 l-100 104 -53 0 c-29 0
-66 7 -81 15 -65 33 -106 119 -82 171 13 29 40 42 50 25 6 -9 16 -9 42 3 19 8
47 17 62 21 36 7 114 80 163 151 37 53 37 56 22 82 -18 30 -41 139 -32 153 8
14 -6 67 -23 84 -10 10 -35 15 -81 15 l-67 0 -73 65 c-40 36 -77 65 -81 65 -5
0 -21 18 -36 40 -33 47 -43 50 -50 13 -4 -16 -10 -35 -15 -44 -5 -10 -4 -21 3
-28 9 -9 8 -14 -3 -21 -12 -8 -9 -10 12 -10 15 0 36 -10 48 -22 23 -25 25 -34
8 -41 -8 -3 -6 -6 5 -6 9 -1 17 -7 17 -14 0 -19 -53 -63 -58 -49 -2 7 -10 12
-18 12 -14 0 -18 11 -14 43 1 10 -4 25 -10 33 -7 8 -9 14 -5 14 12 0 -16 29
-49 51 l-31 21 32 -29 c18 -16 33 -33 33 -38 0 -5 -5 -4 -12 3 -15 15 -32 16
-22 1 3 -6 -5 -3 -20 6 -14 9 -24 21 -21 25 18 29 -122 53 -145 25 -9 -11 -5
-20 17 -45 15 -18 39 -38 53 -45 102 -54 122 -165 32 -181 -53 -9 -72 -29 -65
-68 3 -17 10 -36 15 -43 5 -7 7 -17 3 -23 -7 -11 11 -13 87 -12 31 0 48 -5 52
-14 4 -11 -2 -13 -34 -8 -62 10 -90 -1 -90 -35 0 -16 -7 -42 -16 -58 -21 -35
-105 -106 -136 -114 -40 -10 -107 22 -148 71 -46 55 -55 74 -64 125 -4 22 -32
83 -62 137 -56 100 -64 135 -42 185 28 62 105 158 150 186 51 32 93 30 165 -8
62 -32 69 -34 81 -18 6 9 12 30 12 45 0 20 7 32 24 40 27 12 43 38 23 38 -7 0
-23 -7 -35 -16 -21 -14 -22 -14 -22 8 0 34 -25 65 -70 88 -22 11 -44 30 -51
41 -19 36 -5 95 33 136 151 167 173 183 253 183 44 0 51 -4 112 -62 60 -57 66
-61 77 -45 32 53 36 54 29 5 -5 -39 -3 -48 10 -48 8 0 17 7 21 15 3 8 12 12
20 9 8 -3 17 0 21 6 5 8 11 5 20 -7 20 -27 30 -7 11 22 -13 20 -20 23 -35 15
-23 -12 -45 9 -35 33 6 16 41 33 57 29 4 -1 10 5 14 15 7 18 43 57 43 46 0 -4
-5 -21 -12 -39 -10 -28 -9 -35 10 -59 13 -16 22 -42 22 -62 0 -31 4 -36 53
-58 61 -29 70 -30 87 -10 16 19 30 19 30 0 0 -8 -6 -12 -15 -9 -11 5 -14 -3
-12 -35 l1 -41 23 27 c14 15 21 34 18 44 -4 11 3 23 17 34 l23 17 -25 -7 c-19
-5 -22 -4 -10 4 8 6 23 11 32 11 9 0 24 10 32 22 14 19 16 20 16 5 0 -11 14
-24 36 -33 20 -8 49 -29 64 -45 15 -17 36 -31 46 -31 31 -3 138 62 125 75 -15
15 -13 67 4 97 22 39 18 65 -30 179 l-45 106 -45 1 c-43 2 -97 26 -93 42 1 4
-3 17 -10 29 l-12 22 -105 -36 c-82 -27 -105 -39 -105 -53 0 -33 -12 -50 -36
-50 -12 0 -29 -8 -36 -17 -19 -26 -38 -27 -62 -4 l-22 21 -46 -25 c-109 -58
-217 -4 -205 102 6 56 43 96 102 113 53 15 89 -1 136 -60 18 -22 41 -40 51
-40 10 0 18 -7 18 -15 0 -8 4 -15 9 -15 5 0 7 9 4 20 -8 28 22 36 60 15 31
-16 34 -16 116 14 101 37 109 43 104 79 l-4 27 18 -22 c10 -12 26 -34 36 -48
19 -26 33 -30 55 -16 12 7 12 12 0 30 -11 19 -11 23 5 32 9 6 17 19 17 30 0
16 5 19 20 14 12 -4 26 0 36 9 14 15 13 17 -12 26 -40 16 -77 9 -80 -15 -2
-11 -11 -25 -20 -32 -41 -30 -72 56 -37 99 13 14 11 22 -8 59 -19 38 -20 42
-4 29 22 -17 23 -21 -45 93 -30 49 -58 91 -63 94 -6 3 -7 1 -3 -5 11 -19 -3
-33 -22 -23 -9 5 -30 13 -46 17 -33 10 -62 46 -72 89 l-7 30 26 -24 c19 -17
25 -19 23 -7 -1 9 -11 22 -22 30 -18 14 -18 17 -4 43 10 19 28 31 52 37 33 8
39 15 66 80 25 59 72 198 72 212 0 2 -3 3 -7 3 -40 -6 -108 52 -145 125 -24
47 -21 134 5 161 9 9 17 20 17 25 0 5 11 20 25 34 21 21 25 34 25 86 0 33 2
60 5 60 2 0 20 -21 40 -46z m496 -24 c19 -50 23 -70 14 -70 -7 0 -15 7 -19 15
-8 21 -53 19 -65 -2 -18 -34 -23 -4 -6 39 9 24 21 53 26 66 5 12 12 22 16 22
5 0 20 -32 34 -70z m91 8 c3 -61 4 -63 30 -63 15 -1 30 -4 34 -8 4 -4 -14 -7
-39 -7 l-47 0 0 70 c0 87 18 93 22 8z m193 18 c0 -24 -3 -42 -7 -39 -14 8 -8
83 6 83 1 0 1 -20 1 -44z m457 -36 c20 -6 47 -23 60 -38 30 -36 54 -45 81 -31
18 9 17 6 -5 -13 -23 -20 -27 -31 -26 -76 0 -65 -37 -122 -80 -122 l-27 0 33
31 c37 35 46 77 12 59 -12 -6 -26 -22 -32 -35 -6 -14 -14 -22 -19 -20 -4 3
-10 1 -14 -5 -3 -5 -23 -10 -45 -10 -24 0 -40 -5 -44 -15 -9 -24 31 -38 93
-33 l56 5 -34 -14 c-23 -10 -57 -13 -105 -10 -63 5 -73 8 -98 36 -21 24 -28
41 -28 74 0 24 5 48 10 53 6 6 12 27 14 47 2 19 11 43 20 52 15 15 16 13 16
-31 0 -40 2 -45 15 -34 8 7 15 17 15 22 0 5 7 16 16 25 8 9 13 22 9 31 -7 19
12 42 37 42 10 0 16 5 13 10 -8 13 10 13 57 0z m-1698 -356 c17 -17 22 -49 7
-39 -6 3 -13 -10 -16 -28 -6 -31 -9 -33 -38 -28 -18 3 -41 11 -51 17 -28 17
-13 44 24 44 23 0 30 4 30 19 0 11 -8 22 -17 24 -10 3 -4 5 14 6 17 0 39 -6
47 -15z m-1038 -26 c5 -7 9 -26 9 -43 0 -25 -4 -30 -25 -32 l-25 -3 23 10 c15
6 21 14 15 22 -4 7 -6 21 -5 30 2 9 -5 18 -15 21 -15 4 -15 5 -2 6 9 0 20 -5
25 -11z m244 -33 c0 -25 -3 -45 -7 -45 -5 0 -7 15 -7 33 2 49 4 57 9 57 3 0 5
-20 5 -45z m177 39 c-3 -3 -12 -4 -19 -1 -8 3 -5 6 6 6 11 1 17 -2 13 -5z
m-499 -46 c-1 -37 -2 -39 -5 -10 -2 17 -9 32 -14 32 -6 0 -7 5 -4 10 14 23 25
7 23 -32z m242 3 c-1 -14 -2 -14 -11 2 -14 23 -28 13 -24 -18 2 -20 0 -23 -11
-14 -18 15 -18 24 1 43 18 18 45 11 45 -13z m185 19 c4 -6 1 -9 -7 -8 -7 2
-14 -7 -16 -19 -2 -16 2 -23 12 -23 10 0 13 -6 10 -15 -5 -13 -10 -12 -25 6
-23 27 -23 33 -3 53 18 19 21 19 29 6z m85 -36 c0 -19 -5 -24 -25 -24 -28 0
-35 27 -10 36 21 8 19 25 -2 18 -15 -5 -15 -4 -3 4 19 14 40 -3 40 -34z m38
21 c-13 -29 -6 -40 17 -31 12 4 14 12 10 28 -6 18 -4 20 5 12 20 -19 8 -49
-20 -49 -28 0 -39 27 -20 50 18 22 21 18 8 -10z m419 -5 c-9 -23 -8 -32 2 -42
11 -10 14 -10 18 0 7 18 23 14 23 -6 0 -36 51 -57 76 -32 7 7 11 5 11 -7 0
-10 -7 -23 -15 -29 -17 -12 -79 -9 -96 6 -7 5 -16 6 -20 2 -4 -4 -7 -2 -5 3 1
6 -3 23 -9 38 -16 38 -15 63 4 81 22 22 24 20 11 -14z m-687 5 c-10 -12 -10
-18 0 -30 9 -11 9 -15 1 -15 -15 0 -25 26 -17 45 3 8 11 15 17 15 8 0 8 -4 -1
-15z m77 -32 c-3 -10 -5 -2 -5 17 0 19 2 27 5 18 2 -10 2 -26 0 -35z m781 2
c6 -14 8 -25 3 -25 -4 0 -13 11 -19 25 -6 14 -8 25 -3 25 4 0 13 -11 19 -25z
m156 -11 c9 -3 16 -10 16 -16 0 -5 -4 -6 -10 -3 -5 3 -10 1 -10 -4 0 -6 -9
-11 -19 -11 -19 0 -23 -22 -6 -37 4 -5 4 -1 0 7 -7 13 -6 13 7 2 8 -7 23 -10
32 -6 22 8 20 -8 -3 -28 -18 -15 -21 -14 -45 11 -14 15 -26 32 -26 38 0 6 -6
13 -12 15 -7 3 1 12 17 20 36 19 39 20 59 12z m56 -39 c0 -5 -5 -3 -10 5 -5 8
-10 20 -10 25 0 6 5 3 10 -5 5 -8 10 -19 10 -25z m1530 -31 c65 -68 77 -144
33 -203 -69 -92 -137 -141 -196 -141 -40 0 -63 22 -102 100 -23 47 -26 64 -22
112 5 61 11 69 79 121 69 53 80 58 127 53 35 -3 51 -12 81 -42z m-315 -14 c-1
-11 -9 -28 -18 -37 -20 -20 -109 -45 -104 -30 2 6 17 15 33 19 16 4 43 21 59
38 16 16 29 30 30 30 1 0 1 -9 0 -20z m-1695 -85 c-7 -8 -16 -12 -21 -9 -13 8
-1 24 18 24 13 0 13 -3 3 -15z m214 1 c-28 -21 -7 -51 35 -51 17 0 31 -5 31
-12 0 -16 -17 -26 -25 -13 -3 5 -12 10 -18 10 -7 0 -6 -4 3 -10 10 -6 11 -10
3 -10 -19 0 -53 37 -53 58 0 20 18 42 34 42 5 0 1 -6 -10 -14z m-250 -26 c5 1
12 -3 15 -9 4 -6 19 -12 33 -13 17 -1 24 -7 20 -16 -3 -10 -14 -12 -35 -8 -41
8 -57 24 -56 55 0 21 2 22 8 8 4 -10 11 -18 15 -17z m109 -75 c23 -32 17 -32
-13 0 -13 14 -19 25 -14 25 5 0 17 -12 27 -25z m347 16 c0 -5 -7 -11 -15 -15
-22 -8 -18 -26 6 -26 11 0 18 -4 15 -9 -9 -13 -44 -2 -51 17 -4 10 1 22 11 29
21 15 34 17 34 4z m-1273 -69 c7 -4 11 -26 10 -52 -2 -38 -5 -45 -24 -48 -22
-3 -23 0 -23 52 0 56 8 66 37 48z m80 0 c6 -4 11 -28 11 -54 -1 -26 -5 -45
-10 -42 -4 3 -8 12 -8 20 0 23 -18 16 -23 -8 -2 -13 -5 3 -6 35 -1 57 7 68 36
49z m81 -1 c9 -5 12 -24 10 -52 -2 -36 -7 -44 -23 -44 -15 0 -21 9 -26 35 -5
34 4 70 19 70 4 0 13 -4 20 -9z m53 -29 c0 -25 1 -25 13 8 l13 35 11 -30 c9
-25 11 -26 11 -8 1 12 6 25 12 29 9 5 10 -7 4 -42 -9 -66 -16 -74 -31 -39 -11
26 -13 27 -14 8 0 -28 -17 -39 -24 -16 -14 50 -18 96 -7 89 6 -4 11 -19 12
-34z m129 11 c0 9 5 17 10 17 6 0 10 -22 10 -50 0 -55 -13 -65 -28 -22 l-10
27 -1 -27 c-2 -49 -21 -30 -21 20 0 58 9 71 27 40 10 -18 12 -20 13 -5z m661
-25 c15 -28 5 -21 -21 15 -15 20 -17 27 -6 18 9 -8 22 -23 27 -33z m28 -86 c8
-3 12 3 9 19 -2 19 2 25 23 27 17 2 29 -3 32 -12 6 -14 -4 -21 -25 -17 -11 1
-10 -17 1 -23 5 -4 11 -1 13 5 2 7 8 6 16 -3 9 -11 9 -19 -2 -33 -31 -42 -118
21 -99 72 6 16 8 15 13 -6 3 -14 11 -26 19 -29z m192 -62 c33 -18 69 -86 69
-131 0 -35 -6 -47 -37 -75 -20 -19 -45 -36 -55 -40 -25 -8 -62 18 -98 68 -41
56 -42 113 -2 150 38 36 87 47 123 28z m-1235 -90 c7 0 14 -4 14 -10 0 -5 -9
-10 -20 -10 -18 0 -20 6 -18 58 2 56 2 56 5 10 3 -34 8 -48 19 -48z m121 63
l10 -28 6 28 c12 47 27 30 26 -30 -1 -50 -3 -53 -8 -23 l-7 35 -8 -35 -9 -35
-11 30 -10 30 -7 -30 c-5 -23 -7 -17 -8 28 -1 61 11 75 26 30z m112 -23 c13
-62 13 -60 1 -60 -5 0 -10 7 -10 15 0 20 -10 19 -27 -2 -13 -16 -14 -14 -8 22
14 91 28 99 44 25z m61 37 c10 16 11 15 5 -7 -3 -14 -9 -40 -12 -59 l-6 -34
-13 49 c-17 63 -17 73 0 51 14 -18 15 -18 26 0z m-245 -54 c-1 -16 2 -31 9
-35 7 -5 5 -8 -6 -8 -14 0 -18 8 -18 35 0 19 4 35 9 35 5 0 8 -12 6 -27z m-30
-188 c0 -44 -3 -50 -22 -53 -22 -3 -23 0 -23 53 0 53 1 56 23 53 19 -3 22 -9
22 -53z m55 10 c0 -60 18 -58 23 3 4 44 4 43 3 -8 -1 -48 -4 -55 -21 -55 -17
0 -20 8 -23 53 -2 31 1 52 7 52 6 0 11 -20 11 -45z m107 33 c6 -7 8 -33 5 -57
-4 -43 -5 -44 -18 -20 -10 18 -13 20 -14 7 0 -9 -4 -20 -10 -23 -6 -4 -10 15
-10 49 0 48 3 56 19 56 10 0 23 -6 28 -12z m73 -3 c0 -9 -6 -12 -15 -9 -21 9
-19 -6 6 -32 13 -14 19 -30 15 -39 -7 -19 -37 -17 -44 3 -2 7 2 10 12 6 20 -8
21 10 1 26 -16 13 -20 42 -8 53 12 12 33 7 33 -8z m70 5 c0 -5 -4 -10 -10 -10
-5 0 -11 -21 -12 -47 l-2 -48 -3 48 c-2 26 -8 47 -14 47 -5 0 -9 5 -9 10 0 6
11 10 25 10 14 0 25 -4 25 -10z m70 0 c0 -5 -7 -10 -15 -10 -18 0 -19 -12 -3
-28 9 -9 9 -12 0 -12 -7 0 -12 -7 -12 -15 0 -8 7 -15 15 -15 8 0 15 -4 15 -10
0 -5 -11 -10 -25 -10 -24 0 -25 3 -25 55 0 52 1 55 25 55 14 0 25 -4 25 -10z
m50 -12 c6 -17 9 -18 9 -6 1 9 6 20 11 23 6 4 10 -15 10 -49 0 -61 -10 -71
-27 -28 l-11 27 -1 -30 c-1 -20 -4 -26 -10 -17 -6 10 -8 86 -2 100 4 8 13 -1
21 -20z m-445 -205 l8 -28 6 24 c12 47 31 36 31 -18 0 -49 -19 -74 -21 -28
l-2 22 -4 -22 c-2 -13 -9 -23 -14 -23 -5 0 -9 10 -10 23 -1 21 -1 21 -9 -3 -6
-20 -8 -14 -9 28 -1 56 12 69 24 25z m85 -18 c0 -25 5 -45 10 -45 6 0 10 20
10 45 0 25 5 45 10 45 6 0 10 -20 10 -44 0 -51 -20 -76 -45 -56 -17 14 -21
100 -5 100 6 0 10 -20 10 -45z m107 33 c7 -12 12 -98 6 -98 -1 0 -9 12 -17 28
-14 25 -15 26 -16 5 0 -47 -20 -21 -20 27 0 43 3 50 19 50 11 0 23 -6 28 -12z
m77 6 c23 -9 20 -45 -4 -51 -11 -3 -20 -14 -20 -24 0 -10 -4 -21 -10 -24 -6
-4 -10 15 -10 49 0 57 6 64 44 50z m56 -14 c0 -11 5 -20 10 -20 6 0 10 10 10
23 1 17 2 19 9 7 10 -17 8 -86 -2 -96 -4 -4 -7 5 -7 19 0 15 -4 27 -10 27 -5
0 -10 -9 -10 -19 0 -11 -4 -23 -10 -26 -6 -4 -10 15 -10 49 0 31 5 56 10 56 6
0 10 -9 10 -20z m76 3 c13 -17 13 -17 14 0 0 9 5 17 11 17 6 0 8 -9 3 -22 -4
-13 -10 -39 -14 -58 -7 -37 -11 -32 -27 38 -11 45 -8 52 13 25z m935 -180
c-12 -20 -14 -14 -5 12 4 9 9 14 11 11 3 -2 0 -13 -6 -23z m304 -7 c13 -13 27
-36 31 -50 8 -34 -13 -86 -36 -86 -19 0 -43 -23 -34 -32 3 -3 1 -9 -5 -13 -7
-3 -11 3 -11 15 0 12 -4 18 -10 15 -5 -3 -10 -16 -10 -28 0 -13 -3 -17 -8 -11
-4 6 -22 19 -39 28 -18 9 -32 20 -31 24 0 4 -2 14 -6 23 -7 17 7 83 21 105 28
40 103 45 138 10z m-1654 -23 c1 -26 1 -27 7 -5 4 13 12 23 17 23 6 0 13 -10
17 -23 6 -23 6 -23 7 -1 1 12 6 25 12 28 7 5 8 -8 3 -41 -9 -67 -15 -74 -30
-33 -9 26 -13 29 -13 12 -1 -23 -16 -39 -24 -26 -12 20 -18 93 -8 93 6 0 11
-12 12 -27z m143 5 c9 -35 7 -53 -8 -73 -12 -16 -16 -17 -30 -6 -16 13 -23 81
-9 94 14 15 41 6 47 -15z m74 -27 c3 -45 -9 -64 -35 -54 -14 5 -19 84 -6 97
19 19 38 -1 41 -43z m80 0 c2 -28 -1 -47 -10 -52 -30 -19 -38 -9 -38 47 0 52
1 55 23 52 18 -2 23 -10 25 -47z m42 22 l1 -28 13 30 c14 30 15 29 29 -15 4
-10 6 -7 6 7 1 12 6 25 12 29 9 5 10 -7 4 -42 -10 -67 -16 -74 -31 -33 -12 32
-13 33 -13 7 -2 -47 -19 -40 -30 12 -13 62 -13 60 -1 60 6 0 10 -12 10 -27z
m128 -20 c11 -50 7 -68 -8 -43 -8 13 -12 12 -25 -5 -15 -19 -16 -17 -10 30 11
82 28 89 43 18z m79 -11 c1 -30 -2 -50 -8 -47 -5 4 -9 13 -9 21 0 23 -18 16
-23 -8 -2 -13 -5 3 -6 35 -1 55 0 58 22 55 19 -3 22 -9 24 -56z m81 12 c3 -44
-16 -71 -43 -60 -11 4 -15 20 -15 56 0 50 1 51 28 48 24 -3 27 -8 30 -44z
m-598 -164 c0 -5 -7 -7 -15 -4 -21 9 -19 -12 5 -36 24 -24 25 -39 5 -46 -21
-8 -48 3 -39 17 4 8 9 7 15 -2 4 -7 11 -11 14 -7 4 4 -3 20 -15 36 -12 17 -19
35 -16 41 9 14 46 15 46 1z m62 -40 c-5 -62 -22 -66 -22 -6 0 26 -5 46 -12 49
-7 3 -2 6 12 6 24 1 25 -1 22 -49z m84 25 c10 -42 -3 -77 -29 -73 -17 2 -23
11 -25 36 -4 45 3 62 27 62 14 0 23 -9 27 -25z m44 -19 c0 -34 4 -46 18 -49
10 -3 6 -5 -10 -6 -27 -1 -28 1 -28 49 0 28 5 50 10 50 6 0 10 -20 10 -44z
m73 32 c-5 -7 -10 -29 -12 -48 -4 -49 -11 -51 -11 -4 0 22 -5 45 -12 52 -9 9
-6 12 16 12 21 0 26 -3 19 -12z m77 5 c-1 -5 -7 -19 -15 -33 -19 -34 -18 -48
3 -53 10 -3 6 -5 -10 -6 -31 -1 -35 11 -13 49 19 33 18 38 -2 43 -11 3 -7 5
10 6 15 0 27 -2 27 -6z m58 0 c-21 -5 -24 -29 -5 -37 10 -5 10 -7 0 -12 -7 -3
-13 -14 -13 -25 0 -10 -4 -19 -10 -19 -5 0 -10 23 -10 50 0 48 1 50 28 49 16
-1 20 -3 10 -6z m52 -38 c0 -25 5 -45 10 -45 6 0 10 20 10 45 0 25 4 45 8 45
7 0 8 -16 4 -77 -2 -17 -8 -23 -27 -23 -23 0 -25 3 -25 50 0 28 5 50 10 50 6
0 10 -20 10 -45z m106 33 c5 -8 2 -9 -9 -5 -25 9 -29 -8 -7 -28 29 -26 26 -55
-4 -55 -25 0 -40 12 -29 24 3 3 12 1 20 -5 10 -9 13 -8 13 4 0 8 -7 20 -15 27
-22 18 -19 50 4 50 11 0 23 -5 27 -12z m506 -785 c2 -24 0 -43 -4 -43 -5 0 -7
26 -7 58 1 61 6 55 11 -15z m46 -65 c17 -17 15 -29 -3 -22 -8 4 -15 2 -15 -4
0 -5 9 -12 20 -15 28 -7 25 -42 -5 -72 -31 -32 -84 -34 -111 -4 -20 22 -28 75
-13 85 5 3 9 -4 9 -15 0 -26 10 -51 21 -51 5 0 4 11 -3 25 -16 36 13 79 49 70
16 -4 22 -2 18 5 -9 14 18 13 33 -2z m723 -242 c5 3 7 14 4 24 -4 13 6 7 28
-15 19 -19 44 -35 54 -35 42 0 81 -29 87 -65 6 -28 -13 -105 -26 -105 -2 0 -3
22 -4 49 0 46 -15 81 -35 81 -4 0 -14 -7 -22 -15 -20 -19 -70 2 -63 27 4 18
-16 42 -27 31 -13 -12 -7 -44 8 -49 18 -7 20 -34 3 -34 -7 0 -6 -6 4 -17 8
-10 18 -26 21 -35 8 -23 24 -23 39 1 15 24 35 17 54 -21 14 -27 14 -31 -3 -44
-10 -7 -35 -19 -55 -25 -74 -24 -168 54 -168 138 0 24 9 42 35 68 29 28 34 40
30 62 l-6 28 16 -28 c9 -15 20 -25 26 -21z m153 -25 c-2 -3 -12 3 -22 13 -16
17 -16 18 5 5 12 -7 20 -15 17 -18z m336 -186 c20 -24 6 -28 -15 -5 -10 11
-13 20 -8 20 6 0 16 -7 23 -15z m-1090 -53 c54 -65 50 -148 -10 -212 -25 -26
-32 -30 -50 -20 -20 11 -19 12 15 45 32 29 35 36 25 55 -6 11 -22 25 -35 30
-13 5 -27 15 -31 22 -6 11 -5 11 8 0 12 -10 17 -10 26 1 8 10 6 22 -9 46 -17
29 -24 32 -50 27 -31 -6 -37 2 -16 23 10 11 10 13 0 7 -7 -4 -13 -3 -13 3 0
14 15 17 65 13 38 -3 50 -10 75 -40z m-770 -18 c0 -8 -5 -12 -10 -9 -6 4 -8
11 -5 16 9 14 15 11 15 -7z m615 -74 c10 -11 26 -22 36 -25 11 -4 19 -15 19
-26 0 -30 -38 -24 -71 12 -16 17 -33 28 -39 24 -14 -9 -13 3 3 20 17 20 31 18
52 -5z m-943 -81 c17 -22 17 -29 7 -53 -8 -17 -23 -29 -41 -33 -15 -3 -29 -11
-29 -17 -1 -6 -2 -17 -3 -25 0 -8 -6 -16 -13 -18 -7 -3 -14 13 -18 40 -10 64
-4 92 20 92 16 0 19 -6 17 -28 -3 -26 -2 -28 17 -17 12 6 21 19 21 29 0 33
-59 42 -97 16 -32 -23 -38 0 -6 25 38 29 99 24 125 -11z m2746 23 c9 -6 12
-34 10 -103 l-3 -94 -94 -3 c-62 -2 -97 1 -101 8 -13 20 -12 171 1 186 13 16
164 20 187 6z m-1753 -187 c-12 -52 -13 -55 -14 -23 -1 35 15 95 23 87 2 -2
-2 -31 -9 -64z m-1104 -66 c-14 -23 -21 -28 -21 -16 0 22 33 74 38 59 1 -5 -6
-25 -17 -43z m1919 0 c0 -15 -5 -40 -12 -56 l-12 -28 -4 28 c-2 15 -7 27 -11
27 -8 0 -5 38 5 69 7 23 34 -8 34 -40z m-1810 -69 c0 -5 -2 -10 -4 -10 -3 0
-8 5 -11 10 -3 6 -1 10 4 10 6 0 11 -4 11 -10z"/>
<path d="M3190 4249 c0 -5 5 -7 10 -4 6 3 10 8 10 11 0 2 -4 4 -10 4 -5 0 -10
-5 -10 -11z"/>
<path d="M374 4259 c-73 -36 -82 -215 -13 -274 90 -75 187 34 160 180 -15 82
-82 125 -147 94z"/>
<path d="M2280 4133 c-13 -38 -25 -74 -28 -80 -3 -10 12 -13 53 -13 50 0 57 2
52 18 -24 85 -43 142 -48 142 -3 0 -16 -30 -29 -67z"/>
<path d="M2775 4060 c3 -5 8 -10 11 -10 2 0 4 5 4 10 0 6 -5 10 -11 10 -5 0
-7 -4 -4 -10z"/>
<path d="M2830 4030 c0 -5 4 -10 9 -10 6 0 13 5 16 10 3 6 -1 10 -9 10 -9 0
-16 -4 -16 -10z"/>
<path d="M2966 3926 c-8 -33 -1 -46 24 -46 13 0 22 -9 26 -25 3 -14 12 -25 18
-25 20 0 27 12 15 27 -9 9 -8 13 0 13 6 0 11 -4 11 -10 0 -16 20 -12 27 6 7
19 -18 38 -29 21 -4 -6 -9 0 -14 17 -5 22 -11 27 -27 22 -12 -3 -25 1 -32 11
-11 14 -13 13 -19 -11z"/>
<path d="M2136 3773 c-3 -3 -6 -15 -6 -25 0 -14 6 -19 22 -16 12 2 23 8 25 15
5 13 -31 36 -41 26z"/>
<path d="M290 3731 c0 -5 -3 -16 -6 -25 -4 -12 0 -16 16 -16 16 0 20 4 16 16
-3 9 -6 20 -6 25 0 5 -4 9 -10 9 -5 0 -10 -4 -10 -9z"/>
<path d="M1306 3726 c-8 -32 -4 -39 17 -34 13 2 13 8 3 33 l-13 30 -7 -29z"/>
<path d="M1819 3691 c-2 -28 -1 -51 4 -51 4 0 7 8 7 18 0 10 5 23 11 29 8 8 7
17 -4 33 -14 21 -15 19 -18 -29z"/>
<path d="M2043 3498 c1 -57 -24 -111 -47 -102 -8 3 -16 -2 -19 -10 -8 -21 -28
-20 -66 1 -32 19 -50 48 -45 75 1 10 -6 20 -18 24 -10 3 -23 15 -28 27 -8 21
-9 20 -9 -5 -1 -17 13 -46 34 -74 37 -49 43 -64 23 -64 -8 -1 -5 -6 5 -15 11
-7 25 -11 33 -8 16 6 18 0 5 -25 -4 -9 -16 -39 -26 -67 -9 -27 -33 -96 -53
-152 l-36 -102 27 -21 c30 -24 35 -61 12 -80 -8 -7 -15 -22 -15 -34 0 -22 58
-127 93 -166 9 -11 17 -24 17 -28 0 -4 14 -27 31 -50 27 -37 35 -42 71 -42 43
0 71 -11 106 -43 22 -20 23 -20 80 -3 31 10 69 25 85 32 37 20 34 8 -5 -17
l-33 -21 30 7 c36 7 56 31 50 59 -13 56 -13 76 1 87 11 9 14 8 14 -5 0 -10 5
-14 11 -10 6 4 9 19 5 36 -3 16 -1 39 5 50 6 11 8 22 5 25 -3 4 -15 -15 -26
-40 -22 -49 -32 -61 -23 -27 3 11 0 20 -6 20 -6 0 -11 6 -11 13 0 7 -11 28
-24 46 -14 19 -22 40 -19 49 5 14 2 13 -18 -3 -53 -44 -109 -105 -109 -118 0
-18 -59 -64 -86 -68 -10 -2 -39 0 -64 4 -39 7 -48 13 -67 47 -27 46 -30 110
-8 144 16 24 45 39 95 50 23 5 25 9 22 45 -6 61 14 108 59 138 77 51 183 13
208 -75 6 -19 6 -34 0 -37 -9 -6 -13 -65 -4 -65 3 0 25 16 51 35 25 19 51 35
59 35 7 0 19 7 26 16 10 12 25 15 63 11 28 -2 52 -9 54 -15 7 -23 45 -56 67
-59 21 -3 24 2 35 49 6 29 13 78 17 110 5 54 5 57 -16 51 -34 -9 -70 24 -101
91 -28 63 -29 64 -97 90 -95 36 -332 108 -341 102 -4 -2 -6 14 -4 36 3 28 1
39 -7 34 -6 -4 -11 -17 -11 -28 0 -11 -8 -27 -17 -34 -17 -13 -17 -14 2 -7 18
6 18 5 6 -10 -16 -21 -41 -22 -41 -3 0 8 7 22 16 30 18 19 11 87 -11 106 -11
9 -13 2 -12 -42z m51 -136 c-6 -4 -13 -15 -17 -24 -9 -26 -55 -52 -97 -54 -21
-1 -43 -5 -49 -8 -7 -5 -9 -1 -4 11 11 33 25 43 57 43 17 0 45 9 61 19 28 18
74 30 49 13z"/>
<path d="M2667 3299 c-9 -6 -17 -19 -17 -29 0 -22 -21 -26 -51 -10 -13 8 -19
7 -19 0 0 -18 24 -37 40 -32 46 13 80 35 80 52 0 24 -11 31 -33 19z"/>
<path d="M2775 3289 c6 -32 25 -49 25 -22 0 11 -7 26 -15 33 -12 10 -13 8 -10
-11z"/>
<path d="M2650 3200 c0 -5 4 -10 9 -10 6 0 13 5 16 10 3 6 -1 10 -9 10 -9 0
-16 -4 -16 -10z"/>
<path d="M2140 3059 c0 -5 5 -7 10 -4 6 3 10 8 10 11 0 2 -4 4 -10 4 -5 0 -10
-5 -10 -11z"/>
<path d="M2135 3000 c-11 -12 -19 -25 -17 -29 7 -15 -31 -11 -49 5 -27 24 -25
-1 3 -42 30 -43 55 -59 74 -43 8 6 14 20 14 30 0 16 5 18 28 13 15 -4 32 -13
38 -20 17 -22 36 -17 32 9 -2 14 -10 22 -23 22 -13 0 -21 8 -23 23 -2 12 -10
22 -19 22 -9 0 -21 7 -27 16 -10 14 -14 13 -31 -6z"/>
<path d="M2250 3005 c0 -8 4 -15 10 -15 5 0 7 7 4 15 -4 8 -8 15 -10 15 -2 0
-4 -7 -4 -15z"/>
<path d="M1759 2964 c-1 -5 -1 -13 0 -18 1 -5 -5 -6 -14 -3 -9 4 -15 1 -15 -8
0 -23 28 -18 35 6 4 11 4 23 1 26 -3 4 -7 2 -7 -3z"/>
<path d="M2272 2882 c2 -4 24 -27 50 -51 45 -40 47 -41 58 -22 9 17 8 20 -6
14 -12 -4 -15 -3 -10 5 4 7 -9 21 -33 37 -40 25 -66 32 -59 17z"/>
<path d="M2176 2863 c-4 -10 -15 -14 -31 -11 -31 6 -33 -7 -2 -16 38 -10 82
-7 103 8 23 17 19 22 -28 29 -27 4 -38 2 -42 -10z"/>
<path d="M1714 2841 c8 -12 55 -20 61 -11 3 4 -2 11 -11 14 -24 9 -56 7 -50
-3z"/>
<path d="M2496 2746 c-16 -13 -24 -26 -18 -30 6 -3 8 -15 5 -27 -5 -19 -3 -20
33 -14 68 11 94 25 94 51 0 46 -67 58 -114 20z"/>
<path d="M2728 2718 c-2 -13 0 -36 4 -52 11 -42 -6 -104 -37 -137 -20 -20 -25
-33 -20 -46 5 -10 8 -21 7 -24 -3 -14 35 3 66 30 33 30 71 102 72 136 0 16 -4
14 -19 -11 -34 -56 -45 -54 -38 8 7 54 -6 118 -23 118 -5 0 -10 -10 -12 -22z"/>
<path d="M2382 2664 c-7 -8 -17 -12 -23 -9 -15 10 -10 -18 7 -43 8 -12 20 -20
25 -16 5 3 18 -5 29 -18 l19 -23 1 22 c0 12 -5 25 -10 28 -6 4 -8 15 -5 26 4
11 0 25 -9 34 -18 18 -18 18 -34 -1z"/>
<path d="M1640 2280 c0 -13 11 -13 30 0 12 8 11 10 -7 10 -13 0 -23 -4 -23
-10z"/>
<path d="M1590 2246 c0 -8 5 -18 10 -21 6 -3 10 1 10 9 0 8 -4 18 -10 21 -5 3
-10 -1 -10 -9z"/>
<path d="M2177 1965 c8 -21 60 -48 68 -35 10 16 -5 31 -26 25 -12 -4 -21 -1
-25 9 -3 9 -10 16 -15 16 -4 0 -6 -7 -2 -15z"/>
<path d="M2270 1880 c0 -5 5 -10 10 -10 6 0 10 5 10 10 0 6 -4 10 -10 10 -5 0
-10 -4 -10 -10z"/>
<path d="M1440 1850 c14 -26 42 -40 77 -40 31 1 71 26 58 37 -4 5 -10 2 -12
-4 -7 -19 -47 -15 -76 7 -34 27 -62 27 -47 0z"/>
<path d="M1663 1817 c-4 -6 -1 -7 6 -3 8 5 14 0 18 -13 3 -12 10 -21 16 -21 6
0 7 3 4 7 -4 3 -2 12 3 18 8 9 4 14 -15 17 -14 3 -28 1 -32 -5z"/>
<path d="M1848 1796 c-16 -12 -15 -15 10 -39 16 -15 36 -27 45 -27 25 0 22 46
-5 64 -27 19 -28 19 -50 2z"/>
<path d="M1952 1664 c-12 -8 -22 -22 -22 -31 0 -13 3 -13 16 -3 14 13 38 50
32 50 -2 0 -14 -7 -26 -16z"/>
<path d="M1897 1613 c-4 -3 -23 -7 -44 -7 -42 -2 -54 -19 -24 -36 17 -9 21 -8
21 5 0 8 5 15 12 15 6 0 9 -3 5 -6 -3 -3 0 -12 6 -19 10 -10 17 -10 40 1 32
17 35 24 7 19 -11 -2 -20 0 -20 6 0 5 5 9 10 9 6 0 10 5 10 10 0 11 -13 13
-23 3z"/>
<path d="M1143 1566 c3 -7 -1 -25 -8 -40 -13 -24 -12 -26 6 -26 10 0 19 7 19
15 0 21 30 31 41 14 7 -11 9 -11 9 2 0 17 -40 49 -61 49 -6 0 -9 -6 -6 -14z"/>
<path d="M1015 1439 c-10 -30 -2 -32 12 -3 6 13 7 24 3 24 -5 0 -12 -9 -15
-21z"/>
<path d="M1886 1415 c-22 -8 -53 -28 -70 -46 -24 -24 -26 -29 -9 -20 12 6 31
11 43 11 21 0 20 -2 -9 -39 -38 -48 -58 -98 -44 -112 12 -12 53 47 53 75 0 9
7 19 15 22 8 4 15 12 15 19 0 13 33 29 83 41 22 5 27 12 27 35 0 26 -3 29 -32
29 -18 -1 -51 -7 -72 -15z"/>
<path d="M790 1391 c-12 -24 -14 -83 -1 -62 10 15 15 8 25 -31 3 -16 11 -28
16 -28 14 0 13 27 -1 36 -7 4 -9 24 -6 55 5 38 3 49 -8 49 -8 0 -19 -9 -25
-19z"/>
<path d="M973 1373 c12 -27 22 -29 31 -7 8 22 9 21 -18 26 -22 4 -23 3 -13
-19z"/>
<path d="M1338 1373 c7 -3 16 -2 19 1 4 3 -2 6 -13 5 -11 0 -14 -3 -6 -6z"/>
<path d="M923 1327 c-27 -12 -30 -35 -7 -44 21 -8 49 21 38 40 -7 11 -14 12
-31 4z"/>
<path d="M1350 1324 c0 -8 5 -12 10 -9 6 4 8 11 5 16 -9 14 -15 11 -15 -7z"/>
<path d="M1135 1313 c-11 -3 -28 -12 -38 -21 -14 -12 -22 -13 -42 -4 -16 7
-25 8 -25 2 0 -15 54 -34 58 -21 2 6 9 11 15 11 7 0 23 9 37 20 14 11 23 19
20 19 -3 -1 -14 -4 -25 -6z"/>
<path d="M1150 1275 c0 -8 -4 -15 -10 -15 -17 0 -11 -19 11 -30 17 -10 21 -8
26 9 3 12 12 21 20 21 13 0 13 3 3 15 -7 8 -21 15 -31 15 -11 0 -19 -7 -19
-15z"/>
<path d="M1100 1250 c0 -5 5 -10 10 -10 6 0 10 5 10 10 0 6 -4 10 -10 10 -5 0
-10 -4 -10 -10z"/>
<path d="M1118 1213 c7 -3 16 -2 19 1 4 3 -2 6 -13 5 -11 0 -14 -3 -6 -6z"/>
<path d="M2140 1177 c0 -13 -6 -32 -14 -42 -20 -28 -9 -52 25 -52 22 0 31 6
35 23 7 26 -1 44 -20 44 -9 0 -12 9 -8 25 2 15 0 25 -7 25 -6 0 -11 -10 -11
-23z"/>
<path d="M916 1145 c3 -27 10 -54 14 -59 11 -11 1 59 -12 89 -5 13 -6 2 -2
-30z"/>
<path d="M1917 1163 c-15 -14 -6 -51 18 -73 19 -18 31 -22 61 -17 43 7 39 4
48 40 4 19 3 26 -4 22 -5 -3 -10 -2 -10 3 0 5 -17 14 -39 20 -44 14 -65 15
-74 5z"/>
<path d="M876 1058 c-9 -12 -16 -28 -16 -35 0 -19 27 -16 33 5 2 9 8 25 12 35
10 25 -11 21 -29 -5z"/>
<path d="M2143 1073 c-7 -2 -13 -11 -13 -19 0 -8 -12 -26 -26 -39 -34 -32 -18
-32 20 -2 16 13 31 33 33 45 1 12 2 22 0 21 -1 0 -8 -3 -14 -6z"/>
<path d="M959 1031 c-19 -16 -22 -22 -11 -32 10 -11 12 -9 12 9 0 13 6 22 15
22 8 0 15 5 15 10 0 14 -4 13 -31 -9z"/>
<path d="M890 990 c0 -5 5 -10 10 -10 6 0 10 5 10 10 0 6 -4 10 -10 10 -5 0
-10 -4 -10 -10z"/>
<path d="M1467 793 c-14 -13 -7 -42 8 -37 8 4 15 15 15 25 0 19 -11 25 -23 12z"/>
<path d="M1606 785 c4 -8 13 -15 21 -15 12 0 12 2 -1 15 -8 8 -17 15 -20 15
-3 0 -3 -7 0 -15z"/>
<path d="M1546 728 c-8 -34 8 -42 44 -22 32 19 32 19 47 -3 19 -29 33 -29 28
-2 -6 29 -9 31 -45 34 -17 1 -33 5 -37 9 -13 13 -31 5 -37 -16z"/>
<path d="M2523 533 c-20 -7 -15 -33 5 -33 24 0 32 8 25 26 -5 15 -10 16 -30 7z"/>
<path d="M2297 3728 c-10 -34 -9 -38 8 -38 16 0 20 27 6 48 -6 10 -10 8 -14
-10z"/>
<path d="M3058 3698 c5 -5 16 -8 23 -6 8 3 3 7 -10 11 -17 4 -21 3 -13 -5z"/>
<path d="M3020 3636 c0 -10 -7 -16 -17 -14 -10 2 -19 -4 -21 -14 -2 -13 3 -18
17 -18 11 0 27 -7 35 -16 9 -8 26 -14 38 -12 19 2 23 9 21 32 -3 35 -9 42 -45
51 -22 6 -28 4 -28 -9z"/>
<path d="M740 3270 c0 -5 7 -10 15 -10 8 0 15 5 15 10 0 6 -7 10 -15 10 -8 0
-15 -4 -15 -10z"/>
<path d="M260 2911 c0 -6 5 -13 10 -16 6 -3 10 1 10 9 0 9 -4 16 -10 16 -5 0
-10 -4 -10 -9z"/>
<path d="M266 2871 c-4 -7 -5 -15 -2 -18 9 -9 19 4 14 18 -4 11 -6 11 -12 0z"/>
<path d="M340 2905 c0 -9 5 -15 11 -13 6 2 11 8 11 13 0 5 -5 11 -11 13 -6 2
-11 -4 -11 -13z"/>
<path d="M420 2886 c0 -19 5 -38 10 -41 6 -4 10 10 10 34 0 23 -4 41 -10 41
-5 0 -10 -15 -10 -34z"/>
<path d="M481 2684 c0 -11 3 -14 6 -6 3 7 2 16 -1 19 -3 4 -6 -2 -5 -13z"/>
<path d="M260 2511 c0 -6 5 -13 10 -16 6 -3 10 1 10 9 0 9 -4 16 -10 16 -5 0
-10 -4 -10 -9z"/>
<path d="M260 2465 c0 -9 5 -15 11 -13 6 2 11 8 11 13 0 5 -5 11 -11 13 -6 2
-11 -4 -11 -13z"/>
<path d="M430 2505 c0 -8 5 -15 10 -15 6 0 10 7 10 15 0 8 -4 15 -10 15 -5 0
-10 -7 -10 -15z"/>
<path d="M440 2310 c0 -19 3 -21 12 -12 9 9 9 15 0 24 -9 9 -12 7 -12 -12z"/>
<path d="M520 2304 c0 -8 5 -12 10 -9 6 3 10 10 10 16 0 5 -4 9 -10 9 -5 0
-10 -7 -10 -16z"/>
<path d="M1799 2135 c-24 -39 -15 -93 14 -82 17 7 39 -14 35 -33 -2 -7 2 -14
8 -17 8 -3 12 14 13 52 l0 56 -29 -6 c-24 -5 -29 -3 -32 17 -2 13 -6 19 -9 13z"/>
<path d="M1774 2022 c13 -25 34 -42 52 -42 14 0 -1 22 -32 45 l-36 27 16 -30z"/>
<path d="M370 2091 c0 -23 5 -41 10 -41 6 0 10 15 10 34 0 19 -4 38 -10 41 -6
4 -10 -10 -10 -34z"/>
<path d="M448 2118 c-2 -7 -1 -26 3 -43 6 -28 7 -26 8 13 1 42 -3 53 -11 30z"/>
<path d="M525 2118 c-9 -22 -2 -63 10 -63 14 0 18 41 6 62 -9 17 -10 17 -16 1z"/>
<path d="M774 2119 c-3 -6 -1 -16 5 -22 8 -8 11 -5 11 11 0 24 -5 28 -16 11z"/>
<path d="M850 2085 c0 -19 5 -35 10 -35 6 0 10 16 10 35 0 19 -4 35 -10 35 -5
0 -10 -16 -10 -35z"/>
<path d="M400 1890 c0 -22 5 -40 10 -40 6 0 10 18 10 40 0 22 -4 40 -10 40 -5
0 -10 -18 -10 -40z"/>
<path d="M2067 753 c-15 -15 -5 -30 19 -30 16 0 21 2 14 7 -7 4 -16 13 -19 19
-4 6 -10 8 -14 4z"/>
<path d="M1330 479 c0 -5 5 -7 10 -4 6 3 10 8 10 11 0 2 -4 4 -10 4 -5 0 -10
-5 -10 -11z"/>
<path d="M3330 3682 c0 -5 11 -14 25 -20 22 -10 25 -9 25 8 0 15 -7 20 -25 20
-14 0 -25 -4 -25 -8z"/>
<path d="M889 498 c0 -2 -2 -13 -3 -25 -2 -18 0 -20 11 -12 7 6 13 8 13 3 0
-5 4 -4 8 2 4 6 16 16 27 22 18 10 16 11 -17 12 -21 0 -38 -1 -39 -2z"/>
<path d="M747 474 c-8 -8 1 -24 14 -24 5 0 9 7 9 15 0 15 -12 20 -23 9z"/>
<path d="M914 356 c-9 -24 0 -59 16 -64 13 -5 13 -3 1 12 -11 13 -11 22 -3 41
8 16 8 25 1 25 -5 0 -12 -6 -15 -14z"/>
<path d="M960 355 c7 -8 10 -25 6 -40 -8 -30 -1 -33 14 -5 12 22 -2 60 -22 60
-7 0 -6 -5 2 -15z"/>
<path d="M1000 329 c0 -47 17 -53 22 -7 4 46 28 49 28 4 0 -20 5 -36 11 -36 6
0 9 16 7 38 -3 34 -6 37 -35 39 -32 1 -33 0 -33 -38z"/>
<path d="M840 300 c0 -5 5 -10 11 -10 5 0 7 5 4 10 -3 6 -8 10 -11 10 -2 0 -4
-4 -4 -10z"/>
<path d="M12 110 c0 -59 1 -62 10 -32 8 22 8 42 0 65 -9 29 -10 26 -10 -33z"/>
<path d="M502 110 c0 -30 3 -49 8 -44 13 14 14 46 3 73 -8 20 -10 16 -11 -29z"/>
<path d="M958 3 c12 -2 32 -2 45 0 12 2 2 4 -23 4 -25 0 -35 -2 -22 -4z"/>
</g>
</svg>
